PathFileType	4	(X/Y/Z)	SUBJ11_3_walk_RCNL2025.trc
DataRate	CameraRate	NumFrames	NumMarkers	Units	OrigDataRate	OrigDataStartFrame	OrigNumFrames
100	100	4	25	mm	100	163	432
Frame#	Time	R_Shoulder			L_Shoulder			C7			J_Notch			R_Elbow			L_Elbow			R_Wrist			L_Wrist			R_Asis			L_Asis			Sacral			Thoracic			Sternum			R_Thigh_Lateral			R_Knee_Lateral			R_Shank_Lateral			R_Ankle_Lateral			R_Heel			R_Toe			L_Thigh_Lateral			L_Knee_Lateral			L_Shank_Lateral			L_Ankle_Lateral			L_Heel			L_Toe		
		X1	Y1	Z1	X2	Y2	Z2	X3	Y3	Z3	X4	Y4	Z4	X5	Y5	Z5	X6	Y6	Z6	X7	Y7	Z7	X8	Y8	Z8	X9	Y9	Z9	X10	Y10	Z10	X11	Y11	Z11	X12	Y12	Z12	X13	Y13	Z13	X14	Y14	Z14	X15	Y15	Z15	X16	Y16	Z16	X17	Y17	Z17	X18	Y18	Z18	X19	Y19	Z19	X20	Y20	Z20	X21	Y21	Z21	X22	Y22	Z22	X23	Y23	Z23	X24	Y24	Z24	X25	Y25	Z25
163	1.62000000	25.367264	1422.183472	116.406944	36.708420	1452.628296	-280.544189	-14.694513	1484.992676	-73.736557	133.715240	1382.193848	-76.013947	-37.383919	1080.543335	181.865280	1.213144	1113.920532	-380.714172	13.757488	823.696960	169.735359	102.894680	870.555847	-344.813019	100.656639	964.491028	52.793758	97.418991	962.023743	-238.432205	-77.787010	985.559998	-95.239243	-90.552795	1304.233887	-93.452080	198.499817	1184.046875	-89.768341	71.823814	616.358521	100.968895	116.333992	468.449371	32.589203	98.571938	259.976318	51.779659	80.661652	65.637344	-32.305172	24.400072	54.084198	-85.068718	217.055618	49.975571	-59.372307	34.698223	615.441284	-334.315552	52.107155	473.538849	-267.266296	-102.403160	340.507446	-293.233978	-250.275406	220.525681	-216.356720	-282.407440	256.818359	-158.201050	-190.255524	97.054695	-191.593155
164	1.63000000	36.938763	1424.589844	116.911148	45.738861	1454.873901	-280.140991	-4.380972	1487.057739	-72.898643	144.319946	1384.657837	-76.031776	-21.082874	1082.540283	183.908279	6.436487	1115.957275	-378.705658	33.622860	826.434937	171.302811	102.770580	870.068146	-345.729980	111.442230	966.422058	53.480412	108.858200	964.593872	-237.975891	-66.651299	987.583801	-95.082329	-79.973022	1306.196533	-92.082382	209.310730	1186.601929	-89.769714	77.881989	617.827698	100.530006	118.415199	468.848053	31.710533	98.780182	260.441345	51.465401	80.546875	65.824661	-32.245853	24.424198	54.397369	-85.054146	217.027298	49.999794	-59.267048	54.512695	618.424194	-334.799805	74.176407	476.483459	-267.330627	-78.210403	341.351135	-293.689789	-224.396805	219.289688	-217.211685	-257.796265	254.521866	-159.009033	-161.209015	97.714775	-193.309021
165	1.64000000	48.415955	1426.967163	117.281891	54.810101	1457.014893	-279.762024	5.863929	1488.989746	-72.195755	154.871643	1387.001099	-76.135033	-5.020218	1084.616699	185.910095	11.694647	1117.993774	-376.725586	53.596765	829.377686	172.863579	102.479710	869.671234	-346.729965	122.145279	968.228394	54.160316	120.200714	967.015015	-237.516006	-55.616631	989.503418	-94.940323	-69.437424	1308.018188	-90.894150	220.016678	1189.009521	-89.813194	83.577126	619.190308	99.942345	120.213013	469.310577	30.753006	98.858971	260.956360	51.109566	80.403976	66.035103	-32.187996	24.453085	54.717350	-85.055916	216.985016	50.021404	-59.152245	74.415787	621.581970	-335.240936	95.897369	479.386230	-267.196228	-53.737263	341.507782	-294.070190	-197.779770	216.737000	-218.141235	-232.683975	250.947983	-160.147568	-131.136597	97.434677	-194.328888
166	1.65000000	59.814552	1429.259033	117.540977	63.940659	1459.018677	-279.401276	16.051079	1490.755005	-71.603798	165.380508	1389.193481	-76.300003	10.741192	1086.716309	187.878235	16.976128	1119.996826	-374.806000	73.644947	832.495026	174.419853	102.074219	869.365082	-347.790131	132.744995	969.863953	54.816521	131.442154	969.252136	-237.067139	-44.679428	991.290955	-94.817093	-58.930534	1309.667847	-89.875763	230.641922	1191.236816	-89.897324	89.031578	620.444580	99.240700	121.842720	469.824097	29.719219	98.890602	261.512329	50.711147	80.258789	66.275993	-32.140682	24.496241	55.055954	-85.077240	216.941544	50.035160	-59.038288	94.217209	624.854248	-335.572327	117.236015	482.218506	-266.855072	-28.999376	340.988342	-294.351257	-170.456131	212.959137	-219.086716	-207.038071	246.124786	-161.485016	-100.096458	96.289978	-194.798706
